<?xml version="1.0" encoding="UTF-8"?>
<svg id="apple" data-name="Layer 1" xmlns="http://www.w3.org/2000/svg" version="1.1" viewBox="0 0 800 800">
  <defs>
    <style>

    .cls-3:hover{
      fill: #76CC26; 
         
    }
      .cls-1 {
        fill: #fff;
      }

      .cls-1, .cls-2, .cls-3, .cls-4 {
        fill-rule: evenodd;
        stroke-width: 0px;
      }

      .cls-2 {
        fill: #5db67d;
      }

      .cls-3 {
        fill: #eb196a;
      }

      .cls-4 {
        fill: #6f0911;
      }
    </style>
  </defs>
  <g id="Group_1638" data-name="Group 1638">
    <path id="Path_3618" data-name="Path 3618" class="cls-1" d="M188.35,253.57c66.45,66.43,192.48,48.12,192.48,48.12,0,0,18.31-126.02-48.13-192.47s-192.45-48.13-192.45-48.13c0,0-18.33,126.12,48.1,192.48"/>
    <path id="Path_3619" data-name="Path 3619" class="cls-2" d="M237.41,302.59c66.43,66.45,192.47,48.12,192.47,48.12,0,0,18.31-126.02-48.12-192.47s-192.47-48.12-192.47-48.12c0,0-18.33,126.12,48.12,192.47"/>
    <path id="Path_3620" data-name="Path 3620" class="cls-4" d="M154.25,75.1c-2.39,31.56-3.93,118.76,44.95,167.63s136.05,47.37,167.63,44.97c2.38-31.55,3.91-118.78-44.95-167.63s-136.07-47.37-167.63-44.97ZM341.03,319.36c-45.24,0-116.89-8.33-163.54-55-71.07-71.06-53.26-200.05-52.46-205.51.98-6.71,6.25-11.98,12.96-12.96,5.44-.77,134.46-18.63,205.53,52.43s53.24,200.05,52.44,205.53c-.97,6.72-6.25,11.99-12.96,12.96-13.92,1.79-27.94,2.64-41.97,2.55"/>
    <path id="Path_3621" data-name="Path 3621" class="cls-4" d="M527.82,34.05c-7.51,0-13.9-5.45-15.1-12.87-1.34-8.35,4.33-16.21,12.67-17.56,11.48-1.84,23.05-3.03,34.66-3.59,8.31-.55,15.5,5.74,16.05,14.05.01.16.02.31.02.47.42,8.45-6.08,15.65-14.53,16.08h0c-10.48.5-20.93,1.59-31.29,3.27-.82.11-1.65.17-2.47.18"/>
    <path id="Path_3622" data-name="Path 3622" class="cls-4" d="M385.34,331.33c-7.9-.02-14.5-6.04-15.23-13.91-.75-7.98-17.43-197.34,50.43-265.19,10.48-10.37,22.42-19.16,35.43-26.1,7.44-4.01,16.73-1.24,20.75,6.19,4.02,7.44,1.25,16.73-6.19,20.75,0,0-.01,0-.02,0-10.39,5.53-19.93,12.55-28.3,20.83-47.89,47.89-46.3,189.98-41.51,240.68.77,8.42-5.43,15.87-13.86,16.65-.48,0-.96.08-1.44.08"/>
    <path id="Path_3623" data-name="Path 3623" class="cls-1" d="M280.98,260.51c36.65.25,72.33,11.79,102.17,33.06,29.84-21.27,65.52-32.82,102.17-33.06,112.84,0,204.35,109.79,204.35,245.22s-91.51,245.22-204.35,245.22c-36.65-.25-72.33-11.79-102.17-33.06-29.84,21.27-65.52,32.82-102.17,33.06-112.87,0-204.35-109.79-204.35-245.22s91.48-245.22,204.35-245.22"/>
    <path id="Path_3624" data-name="Path 3624" class="cls-3" d="M330.02,309.55c36.65.25,72.33,11.79,102.17,33.06,29.84-21.27,65.52-32.82,102.17-33.06,112.87,0,204.35,109.79,204.35,245.22s-91.48,245.22-204.35,245.22c-36.65-.25-72.33-11.79-102.17-33.06-29.84,21.27-65.52,32.81-102.17,33.06-112.85,0-204.35-109.79-204.35-245.22s91.49-245.22,204.35-245.22"/>
    <path id="Path_3625" data-name="Path 3625" class="cls-4" d="M383.15,702.55c3.13,0,6.18.95,8.75,2.73,27.3,19.44,59.91,30.03,93.43,30.33,104.22,0,189.02-103.13,189.02-229.89s-84.8-229.89-189.02-229.89c-33.52.3-66.13,10.89-93.43,30.33-5.28,3.68-12.29,3.68-17.56,0-27.29-19.44-59.9-30.03-93.41-30.33-104.22,0-189.02,103.13-189.02,229.89s84.8,229.89,189.02,229.89c33.51-.3,66.11-10.89,93.41-30.33,2.59-1.79,5.67-2.74,8.81-2.73ZM485.32,766.27c-36.2-.21-71.61-10.62-102.17-30.05-30.56,19.42-65.97,29.84-102.17,30.05-121.14,0-219.67-116.88-219.67-260.54s98.54-260.54,219.67-260.54c36.2.21,71.61,10.63,102.17,30.05,30.56-19.42,65.97-29.83,102.17-30.05,121.12,0,219.67,116.88,219.67,260.54s-98.55,260.54-219.67,260.54"/>
    <path id="Path_3626" data-name="Path 3626" class="cls-4" d="M460.68,660.2c-6.37,0-12.73-.58-19-1.74-8.33-1.54-13.82-9.54-12.29-17.86,1.56-8.31,9.53-13.8,17.85-12.29,39.91,7.37,80.84-18.97,99.52-63.99,3.24-7.81,12.2-11.51,20.01-8.27,0,0,0,0,.01,0,7.81,3.24,11.52,12.2,8.29,20.02-17.66,48.56-62.77,81.74-114.39,84.13"/>
    <path id="Path_3627" data-name="Path 3627" class="cls-4" d="M570.77,517.76c-7.83-.02-14.4-5.94-15.21-13.73-.65-6.17-1.77-12.28-3.32-18.28-2.13-8.19,2.78-16.56,10.98-18.69,0,0,0,0,0,0,8.18-2.13,16.54,2.78,18.67,10.96,0,0,0,.02,0,.02,1.94,7.49,3.32,15.11,4.14,22.8.89,8.41-5.2,15.95-13.61,16.84h-1.61"/>
  </g>

    <script>
    const applepink = document.querySelector('#apple');
    console.log(applepink);
    function logthisId(element) {
    console.log(this);
    console.log('clicked on this element:', this.id);
    }

    applepink.addEventListener('click', logthisId);
    </script>
</svg>