<?xml version="1.0" encoding="UTF-8"?>
<svg id="apricot" data-name="Layer 1" xmlns="http://www.w3.org/2000/svg" version="1.1" viewBox="0 0 800 800">
  <defs>
    <style>

    #apricot:hover{
    animation: apricotMoving 0.6s ease;
    transition: transform 2s ease-in-out;
    animation-iteration-count: infinite;
    }

    @keyframes apricotMoving {
    transform 2s ease-in-out;
    0% { transform: rotate(0deg); }
    15% { transform: rotate(25deg); }
    30% { transform: rotate(50deg); }
    45% { transform: rotate(70deg); }
    66% { transform: rotate(100deg); }
    88% { transform: rotate(120deg); }
    100% { transform: rotate(360deg); }
  }

      .cls-1 {
        fill: #fff;
      }

      .cls-1, .cls-2, .cls-3, .cls-4 {
        fill-rule: evenodd;
        stroke-width: 0px;
      }

      .cls-2 {
        fill: #5db67d;
      }

      .cls-3 {
        fill: #f48e3c;
      }

      .cls-4 {
        fill: #6f0911;
      }
    </style>
  </defs>
  <g id="Group_1645" data-name="Group 1645">
    <path id="Path_3487" data-name="Path 3487" class="cls-1" d="M425.93,21.84c-50.38,21.23-68.15,93.22-68.15,93.22,0,0,63.86,37.52,114.3,16.27s68.17-93.18,68.17-93.18c0,0-63.86-37.53-114.32-16.3"/>
    <path id="Path_3488" data-name="Path 3488" class="cls-2" d="M474.97,70.88c-50.38,21.23-68.15,93.2-68.15,93.2,0,0,63.86,37.53,114.3,16.28s68.17-93.2,68.17-93.2c0,0-63.86-37.52-114.32-16.28"/>
    <path id="Path_3489" data-name="Path 3489" class="cls-4" d="M376.26,107.33c18.73,8.64,58.38,23.23,89.88,9.96s48.72-51.84,55.62-71.3c-18.74-8.64-58.38-23.21-89.86-9.96h0c-31.51,13.2-48.72,51.77-55.63,71.3ZM437.63,153.22c-30.77-1.25-60.8-9.78-87.63-24.89-5.85-3.43-8.75-10.31-7.12-16.89.8-3.19,20.29-79.71,77.11-103.64h0c56.77-23.95,125.15,15.48,128.02,17.18,5.86,3.43,8.76,10.31,7.14,16.91-.81,3.19-20.29,79.69-77.12,103.64-12.81,5.24-26.55,7.86-40.39,7.69"/>
    <path id="Path_3490" data-name="Path 3490" class="cls-1" d="M373.63,748.07c5.67,3.85,13.11,3.85,18.77,0,56.96-38.59,258.24-47.53,292.37-261.32,38.67-242.23-167.08-374.49-301.72-255.3-134.66-119.19-340.41,13.08-301.72,255.3,34.13,213.79,235.41,222.73,292.37,261.32"/>
    <path id="Path_3491" data-name="Path 3491" class="cls-3" d="M422.66,797.12c5.68,3.83,13.11,3.83,18.79,0,56.96-38.6,258.24-47.54,292.37-261.34,38.67-242.23-167.08-374.49-301.72-255.3-134.66-119.19-340.41,13.08-301.72,255.3,34.13,213.79,235.41,222.73,292.35,261.34"/>
    <path id="Path_3492" data-name="Path 3492" class="cls-4" d="M382.2,735.38c.48.34,1.12.34,1.6,0,19.87-11.39,41.01-20.42,62.98-26.9,83.62-29.22,198.1-69.25,222.84-224.15,22.35-140.37-40.82-229.26-101.77-262.74-56.58-32.14-127.53-23.47-174.71,21.34-5.79,5.16-14.52,5.16-20.31,0-47.18-44.83-118.13-53.5-174.71-21.34-60.95,33.53-124.16,122.37-101.77,262.77,24.75,154.85,139.22,194.91,222.83,224.12,21.99,6.48,43.14,15.5,63.03,26.9ZM383,766.31c-6.41-.01-12.67-1.94-17.98-5.54h0c-17.73-9.76-36.47-17.59-55.87-23.35-80.55-28.16-215.37-75.27-242.98-248.24-20.53-128.48,25.54-244.06,117.26-294.45,63.7-35.74,142.74-29.07,199.55,16.84,56.83-45.94,135.93-52.62,199.65-16.84,91.73,50.38,137.75,166.03,117.26,294.45-27.6,172.97-162.44,220.08-242.98,248.24-19.41,5.76-38.14,13.59-55.87,23.35-5.31,3.61-11.58,5.55-18.01,5.55"/>
    <path id="Path_3493" data-name="Path 3493" class="cls-4" d="M383,619.16c-53.47,0-121.33-70.72-121.33-150.19-1.83-38.12,8.67-75.82,29.95-107.5,5.1-6.76,14.71-8.1,21.46-3,0,0,0,0,0,0,6.76,5.1,8.1,14.71,3,21.46,0,0,0,0,0,0-17.2,26.39-25.52,57.58-23.77,89.03,0,69.08,59.61,119.54,90.63,119.54s90.66-50.46,90.66-119.54c0-44.7-11.77-119.54-90.66-119.54-8.47,0-15.33-6.86-15.33-15.33s6.86-15.33,15.33-15.33c75.97,0,121.33,56.15,121.33,150.19,0,79.47-67.82,150.19-121.33,150.19"/>
    <path id="Path_3494" data-name="Path 3494" class="cls-4" d="M408.53,518.87c-1.34,0-2.67-.18-3.96-.53-8.17-2.21-13.02-10.61-10.84-18.79,2.69-9.97,4.06-20.26,4.07-30.59.17-16.62-1.73-33.18-5.64-49.33-2.09-8.19,2.85-16.53,11.04-18.62,0,0,.02,0,.02,0,8.18-2.09,16.51,2.85,18.6,11.03v.05c4.58,18.61,6.8,37.72,6.62,56.88-.01,13.01-1.73,25.97-5.13,38.54-1.8,6.7-7.87,11.36-14.8,11.37"/>
    <path id="Path_3495" data-name="Path 3495" class="cls-4" d="M272,35.76c-3,0-5.93-.88-8.43-2.54-2.55-1.6-5.01-3.19-7.37-4.45-7.38-4.08-10.09-13.35-6.06-20.75,4.07-7.39,13.35-10.09,20.75-6.05,3.05,1.6,6.22,3.59,9.5,5.75,7.07,4.66,9.02,14.16,4.36,21.23h0c-2.83,4.3-7.63,6.88-12.77,6.88"/>
    <path id="Path_3496" data-name="Path 3496" class="cls-4" d="M384.01,246.77c-8.47,0-15.33-6.86-15.33-15.33-1.89-61.58-26.02-120.4-67.95-165.55-5.69-6.26-5.25-15.94.99-21.65,6.26-5.69,15.94-5.25,21.66.97,47.03,50.83,74.01,117,75.94,186.22.02,8.45-6.82,15.31-15.26,15.33h-.06"/>
  </g>

    <script>
    const apricotpeach = document.querySelector('#apricot');
    console.log(apricotpeach);
    function logthisId(element) {
    console.log(this);
    console.log('clicked on this element:', this.id);
    }

    apricotpeach.addEventListener('click', logthisId);
    </script>
</svg>