<?xml version="1.0" encoding="UTF-8"?>
<svg id="grapes" data-name="Layer 1" xmlns="http://www.w3.org/2000/svg" version="1.1" viewBox="0 0 800 800">
  <defs>
    <style>
       
    #grapes:hover {
    animation: dancingGrapes 0.4s ease-in-out;
    animation-iteration-count: infinite;
    }
     @keyframes dancingGrapes {
    0% {transform: translateX(0);}
    25% {transform: translateX(2px);}
    50% {transform: translateX(7px);}
    100% {transform: translateX(1px);
      }
     }
      .cls-1 {
        fill: #fff;
      }

      .cls-1, .cls-2, .cls-3, .cls-4 {
        fill-rule: evenodd;
        stroke-width: 0px;
      }

      .cls-2 {
        fill: #5db67d;
      }

      .cls-3 {
        fill: #ba1775;
      }

      .cls-4 {
        fill: #6f0911;
      }
    </style>
  </defs>
  <g id="Group_1629" data-name="Group 1629">
    <path id="Path_3497" data-name="Path 3497" class="cls-1" d="M319.78,316.89c5-134.09,34.23-228.45,104.21-279.02l36.72,65.45c76.62-88.89,228.85-12.26,228.85-12.26,0,0,0,114.42-35.26,154.43"/>
    <path id="Path_3498" data-name="Path 3498" class="cls-2" d="M368.82,365.93c5-134.09,34.23-228.44,104.21-279.01l36.72,65.45c76.62-88.89,228.85-12.26,228.85-12.26,0,0,0,114.42-35.26,154.41"/>
    <path id="Path_3499" data-name="Path 3499" class="cls-4" d="M319.78,332.21h-.59c-8.45-.32-15.05-7.43-14.74-15.89,5.52-147.92,40.66-240.36,110.55-290.87,3.54-2.56,8.01-3.49,12.28-2.55,4.26.94,7.92,3.65,10.05,7.46l26.91,47.89c85.98-73.13,225.99-4.07,232.25-.91,5.18,2.6,8.45,7.9,8.45,13.7,0,12.29-1.12,121.43-39.09,164.55-5.58,6.34-15.26,6.96-21.61,1.38,0,0-.02-.01-.02-.02-6.34-5.58-6.96-15.24-1.38-21.58,0-.01.02-.02.03-.03,23.34-26.48,30.19-98.73,31.26-134.52-31.78-13.66-143.67-54.91-201.76,12.48-3.27,3.77-8.16,5.72-13.12,5.23-4.97-.5-9.39-3.39-11.84-7.74l-27.92-49.63c-52.68,46.85-79.64,129.03-84.38,256.34-.31,8.23-7.07,14.75-15.31,14.75"/>
    <path id="Path_3500" data-name="Path 3500" class="cls-4" d="M313.15,323.29h-.45c-8.46-.22-15.14-7.25-14.93-15.71,0-1.47,3.19-148.3-49.49-218.47-5.08-6.76-3.72-16.36,3.04-21.44,0,0,.02-.01.02-.02,6.77-5.08,16.38-3.71,21.45,3.06,59.06,78.73,55.87,231.19,55.63,237.66-.22,8.3-7.01,14.91-15.31,14.93"/>
    <path id="Path_3501" data-name="Path 3501" class="cls-4" d="M116.98,126.33c-28.91,1.8-53.8-20.17-55.6-49.07-.04-.57-.06-1.13-.08-1.7-.55-26.88,13.97-51.81,37.62-64.59,33.52-18.53,79.42-13.34,122.92,13.91,7.15,4.48,9.31,13.91,4.83,21.06-.01.02-.03.04-.04.06-4.51,7.16-13.96,9.3-21.11,4.79,0,0,0,0,0,0-39.91-24.98-73.54-23.13-91.74-13.04-13.86,7.42-22.31,22.06-21.81,37.77,0,15.96,16.36,20.13,25.03,20.13,5.8.18,11.49-1.55,16.2-4.92,3.91-3.15,6.06-8,5.76-13.01,0-8.46,6.86-15.32,15.32-15.32s15.32,6.86,15.32,15.32c.3,14.38-6.12,28.07-17.37,37.04-10.13,7.68-22.54,11.74-35.25,11.54"/>
    <path id="Path_3502" data-name="Path 3502" class="cls-1" d="M590.47,623.66c14.47,53.93-17.53,109.39-71.46,123.86,0,0-.01,0-.02,0-53.94,14.46-109.39-17.55-123.84-71.49,0,0,0-.02,0-.02-14.46-53.93,17.53-109.37,71.46-123.83.02,0,.03,0,.04-.01,53.94-14.45,109.38,17.56,123.83,71.5"/>
    <path id="Path_3503" data-name="Path 3503" class="cls-3" d="M639.49,672.7c14.47,53.93-17.53,109.37-71.45,123.84-.01,0-.02,0-.03,0-53.95,14.46-109.4-17.55-123.86-71.5-14.45-53.95,17.57-109.39,71.52-123.84,53.93-14.46,109.37,17.55,123.82,71.48,0,0,0,.02,0,.02"/>
    <path id="Path_3504" data-name="Path 3504" class="cls-4" d="M492.58,766.34c-20.38-.02-40.4-5.42-58.03-15.66-26.81-15.37-46.35-40.83-54.27-70.7-3.99-14.81-5-30.26-2.99-45.46,1.19-8.35,8.84-14.21,17.21-13.18,8.38,1.13,14.28,8.82,13.18,17.21-1.5,11.21-.75,22.61,2.2,33.52,5.81,22,20.18,40.76,39.91,52.09,19.69,11.43,43.14,14.51,65.12,8.57,21.99-5.82,40.75-20.19,52.09-39.91,11.44-19.69,14.54-43.14,8.59-65.13-3.06-11.5-8.5-22.24-15.96-31.51-5.3-6.6-4.25-16.24,2.35-21.55,6.61-5.3,16.26-4.25,21.57,2.35,10.13,12.6,17.5,27.19,21.65,42.81,8.09,29.82,3.9,61.64-11.62,88.36-15.37,26.81-40.84,46.36-70.72,54.27-9.89,2.66-20.09,4.01-30.33,4.02"/>
    <path id="Path_3505" data-name="Path 3505" class="cls-1" d="M640.42,452.24c15.11,56.36-18.33,114.31-74.69,129.42,0,0-.01,0-.02,0-56.38,15.11-114.34-18.36-129.44-74.74-15.1-56.37,18.35-114.32,74.72-129.43,56.37-15.11,114.32,18.35,129.42,74.73,0,0,0,0,0,.01"/>
    <path id="Path_3506" data-name="Path 3506" class="cls-3" d="M689.44,501.27c15.11,56.38-18.36,114.34-74.74,129.44-56.37,15.09-114.32-18.36-129.41-74.74-15.09-56.38,18.36-114.32,74.72-129.44,56.38-15.1,114.32,18.36,129.43,74.74"/>
    <path id="Path_3507" data-name="Path 3507" class="cls-1" d="M470.3,497.82c15.1,56.38-18.36,114.32-74.74,129.43-56.37,15.11-114.32-18.34-129.43-74.71-15.11-56.37,18.33-114.32,74.7-129.44,0,0,.01,0,.02,0,56.38-15.1,114.32,18.35,129.44,74.72"/>
    <path id="Path_3508" data-name="Path 3508" class="cls-3" d="M519.34,546.86c15.11,56.37-18.35,114.32-74.73,129.42,0,0,0,0-.01,0-56.35,15.11-114.29-18.32-129.41-74.68,0,0,0-.02,0-.03-15.13-56.35,18.29-114.3,74.64-129.42.02,0,.05-.01.07-.02,56.38-15.1,114.32,18.35,129.44,74.72"/>
    <path id="Path_3509" data-name="Path 3509" class="cls-4" d="M368.23,646.19c-54.76-.06-102.68-36.83-116.9-89.72-4.9-18.1-5.49-37.09-1.72-55.46,1.68-8.29,9.75-13.64,18.04-11.96.01,0,.03,0,.04,0,8.29,1.7,13.64,9.79,11.96,18.09-2.82,13.71-2.38,27.9,1.29,41.41,6.13,23.18,21.29,42.93,42.08,54.87,20.76,12.06,45.48,15.31,68.64,9.02,48.15-12.98,76.71-62.47,63.85-110.66-3.57-13.54-10.29-26.05-19.6-36.51-5.6-6.34-5.02-16.03,1.31-21.65,6.34-5.6,16.03-5.02,21.65,1.31,12.46,14.03,21.45,30.78,26.26,48.91,8.39,30.99,4.04,64.04-12.09,91.8-15.96,27.85-42.41,48.15-73.43,56.38-10.2,2.75-20.72,4.15-31.29,4.15"/>
    <path id="Path_3510" data-name="Path 3510" class="cls-4" d="M538.52,600.57c-27.74,0-54.66-9.49-76.26-26.9-6.58-5.28-7.63-14.9-2.35-21.48l.05-.06c5.32-6.58,14.95-7.61,21.54-2.3,22.51,18.12,52.3,24.44,80.23,17.03,48.14-13.01,76.7-62.5,63.85-110.69-3.07-11.51-8.39-22.3-15.66-31.74-5.16-6.71-3.91-16.32,2.79-21.49,6.71-5.15,16.32-3.9,21.49,2.79,9.74,12.64,16.87,27.09,20.98,42.51,17.21,64.55-21.08,130.85-85.58,148.22-10.15,2.71-20.62,4.08-31.13,4.09"/>
    <path id="Path_3511" data-name="Path 3511" class="cls-1" d="M345.7,373.16c15.11,56.36-18.33,114.31-74.69,129.42,0,0-.01,0-.02,0-56.36,15.12-114.31-18.31-129.43-74.67,0-.01,0-.03-.01-.04-15.11-56.38,18.34-114.33,74.72-129.44,56.37-15.11,114.32,18.35,129.43,74.72h0"/>
    <path id="Path_3512" data-name="Path 3512" class="cls-3" d="M394.74,422.2c15.1,56.37-18.35,114.32-74.72,129.43-56.36,15.11-114.31-18.33-129.42-74.69,0,0,0-.01,0-.02-15.11-56.38,18.34-114.33,74.72-129.44,56.37-15.11,114.32,18.35,129.43,74.72h0"/>
    <path id="Path_3513" data-name="Path 3513" class="cls-4" d="M243.58,310.15c-7.88.01-15.73,1.05-23.34,3.08-48.15,12.98-76.71,62.49-63.85,110.68,13.01,48.13,62.49,76.68,110.68,63.85,48.15-12.97,76.72-62.47,63.85-110.66-10.65-39.48-46.44-66.92-87.34-66.96ZM243.66,521.55c-54.76-.07-102.69-36.84-116.91-89.73-17.22-64.54,21.06-130.84,85.56-148.19,64.54-17.24,130.86,21.05,148.19,85.56,17.23,64.54-21.05,130.85-85.56,148.19-10.2,2.76-20.71,4.16-31.27,4.17"/>
    <path id="Path_3514" data-name="Path 3514" class="cls-1" d="M515.84,327.58c15.11,56.36-18.33,114.31-74.69,129.42-.01,0-.02,0-.03,0-56.37,15.11-114.32-18.35-129.42-74.73,0,0,0,0,0-.01-15.11-56.37,18.35-114.32,74.73-129.42,0,0,0,0,.01,0,56.37-15.09,114.32,18.36,129.41,74.74"/>
    <path id="Path_3515" data-name="Path 3515" class="cls-3" d="M564.93,376.64c15.11,56.37-18.34,114.32-74.71,129.44-56.38,15.1-114.33-18.36-129.44-74.74-15.11-56.37,18.35-114.32,74.73-129.42,0,0,0,0,.01,0,56.35-15.11,114.29,18.33,129.4,74.68,0,.02,0,.03.01.04"/>
    <path id="Path_3516" data-name="Path 3516" class="cls-4" d="M413.75,264.56c-7.9,0-15.76,1.04-23.39,3.08-23.17,6.15-42.92,21.31-54.87,42.09-12.05,20.76-15.3,45.48-9.02,68.64,6.14,23.17,21.3,42.92,42.09,54.85,20.76,12.06,45.47,15.31,68.64,9.03,23.17-6.14,42.93-21.3,54.87-42.09,12.05-20.76,15.3-45.48,9.02-68.64-10.64-39.49-46.45-66.94-87.35-66.97ZM413.56,475.98c-21.18-.01-41.98-5.62-60.29-16.27-27.85-15.96-48.16-42.4-56.38-73.43-8.4-30.99-4.05-64.06,12.09-91.82,15.96-27.85,42.41-48.15,73.43-56.38,64.54-17.21,130.84,21.06,148.2,85.56h0c17.22,64.55-21.06,130.86-85.58,148.2-10.28,2.76-20.87,4.16-31.51,4.17"/>
    <path id="Path_3517" data-name="Path 3517" class="cls-1" d="M685.98,281.98c15.11,56.37-18.33,114.32-74.7,129.44,0,0-.01,0-.02,0-56.37,15.1-114.32-18.35-129.43-74.72-15.11-56.36,18.33-114.31,74.69-129.42.01,0,.02,0,.03,0,56.37-15.11,114.32,18.34,129.43,74.71"/>
    <path id="Path_3518" data-name="Path 3518" class="cls-3" d="M735.02,331.02c15.11,56.37-18.33,114.32-74.7,129.44,0,0-.01,0-.02,0-56.38,15.1-114.32-18.35-129.44-74.72-15.11-56.37,18.35-114.32,74.73-129.42,0,0,0,0,.01,0,56.37-15.11,114.32,18.34,129.43,74.71"/>
    <path id="Path_3519" data-name="Path 3519" class="cls-4" d="M583.89,218.97c-7.9,0-15.76,1.05-23.39,3.1-48.14,12.98-76.7,62.48-63.85,110.66,13.01,48.13,62.48,76.68,110.66,63.85,48.15-12.99,76.71-62.49,63.85-110.68-10.66-39.44-46.41-66.87-87.27-66.93ZM583.89,430.35c-54.76-.05-102.68-36.82-116.91-89.7-17.23-64.54,21.05-130.85,85.56-148.19,64.54-17.23,130.85,21.05,148.19,85.56,17.23,64.54-21.05,130.85-85.56,148.19-10.2,2.74-20.71,4.14-31.27,4.14"/>
  </g>

    <script>
    const grapesviolet = document.querySelector('#grapes');
    console.log(grapesviolet);
    function logthisId(element) {
    console.log(this);
    console.log('clicked on this element:', this.id);
    }

    grapesviolet.addEventListener('click', logthisId);
    </script>
</svg>