<?xml version="1.0" encoding="UTF-8"?>
<svg id="lemon" data-name="Layer 1" xmlns="http://www.w3.org/2000/svg" viewBox="0 0 692.9 800.01">
  <defs>
    <style>
      .cls-1 {
        fill: #fff;
      }

      .cls-1, .cls-2, .cls-3, .cls-4, .cls-5 {
        stroke-width: 0px;
      }

      .cls-1, .cls-2, .cls-3, .cls-5 {
        fill-rule: evenodd;
      }

      .cls-2 {
        fill: #5db67d;
      }

      .cls-3 {
        fill: #ecf443;
      }

      .cls-4 {
        fill: none;
      }

      .cls-5 {
        fill: #6f0911;
      }

    #lemon:hover{
    animation: zoomingLemon 1s ease-in-out;
    transition: transform 2s ease-in-out;
    animation-iteration-count: infinite rotate;
    }

    @keyframes zoomingLemon {
    0% {

        transform: scale(0.1);
    }
    50% {
        transform: scale(0.5);
    }
    100% {
        transform: scale(1);
    }
    }
    </style>
  </defs>
  <g id="Group_1646" data-name="Group 1646">
    <path id="Path_3439" data-name="Path 3439" class="cls-5" d="M677.57,30.65h-107.73c-8.47,0-15.33-6.86-15.33-15.33s6.86-15.33,15.33-15.33h107.73c8.47,0,15.33,6.86,15.33,15.33s-6.86,15.33-15.33,15.33"/>
    <path id="Path_3440" data-name="Path 3440" class="cls-1" d="M446.43,668.97c112.72-112.76,156.45-284.96,46.2-395.13s-282.41-66.55-395.13,46.2C6.92,410.6-2.89,521.19,40.17,617.72c6.66,15.22,9,31.99,6.75,48.45-3.39,15.15.49,31.01,10.49,42.88,11.88,9.99,27.73,13.87,42.88,10.49,16.46-2.24,33.21.09,48.43,6.74,96.49,43.1,207.12,33.25,297.7-57.31"/>
    <path id="Path_3441" data-name="Path 3441" class="cls-1" d="M340.46,237.69c-94.28,0-170.71-102.43-170.71-102.43,0,0,76.42-102.43,170.71-102.43s170.69,102.43,170.69,102.43c0,0-76.42,102.43-170.69,102.43"/>
    <line id="Line_1" data-name="Line 1" class="cls-4" x1="511.15" y1="135.29" x2="601.73" y2="115.34"/>
    <path id="Path_3442" data-name="Path 3442" class="cls-5" d="M511.15,150.64c-7.19-.01-13.41-5.01-14.96-12.04-1.81-8.26,3.4-16.43,11.65-18.26l90.58-19.96c8.25-1.84,16.43,3.36,18.27,11.61,0,.02,0,.03,0,.04,1.81,8.26-3.41,16.44-11.67,18.26l-90.58,19.97c-1.08.25-2.19.37-3.31.37"/>
    <path id="Path_3443" data-name="Path 3443" class="cls-3" d="M495.45,718.01c112.74-112.74,156.45-284.95,46.29-395.13s-282.41-66.55-395.15,46.2c-90.57,90.57-100.38,201.15-57.31,297.68,6.66,15.22,8.99,31.99,6.75,48.45-3.38,15.15.49,31,10.47,42.88,11.88,9.99,27.73,13.87,42.88,10.49,16.46-2.25,33.23.09,48.45,6.74,96.47,43.1,207.12,33.25,297.68-57.31"/>
    <path id="Path_3444" data-name="Path 3444" class="cls-5" d="M446.43,668.97h0ZM112.52,703.43c14.62-.07,29.09,2.94,42.46,8.84,99.46,44.41,201.76,24.68,280.62-54.15,101.73-101.73,152.46-267.19,46.19-373.47s-271.73-55.51-373.47,46.29c-78.82,78.83-98.58,181.1-54.15,280.6,7.78,17.78,10.55,37.36,7.98,56.61-2.37,10.45-.14,21.42,6.12,30.12,8.71,6.26,19.68,8.48,30.14,6.12,4.68-.61,9.4-.94,14.12-.97ZM260.2,766.46c-40.65-.32-80.77-9.25-117.72-26.2-12.68-5.48-26.61-7.39-40.29-5.52-19.84,4.28-40.53-1.25-55.6-14.85-13.61-15.07-19.14-35.76-14.88-55.62,1.87-13.69-.04-27.63-5.52-40.31-49.89-111.75-27.84-226.45,60.47-314.77,112.24-112.23,296.47-166.56,416.81-46.29s66.03,304.6-46.29,416.83h0c-51.27,54.33-122.35,85.59-197.05,86.65"/>
    <path id="Path_3445" data-name="Path 3445" class="cls-2" d="M389.49,286.78c-94.27,0-170.69-102.43-170.69-102.43,0,0,76.42-102.43,170.69-102.43s170.71,102.43,170.71,102.43c0,0-76.42,102.43-170.71,102.43"/>
    <path id="Path_3446" data-name="Path 3446" class="cls-5" d="M189.52,135.29c20.75,24.04,81.53,87.1,150.94,87.1s130.22-63.01,150.91-87.1c-20.75-24.06-81.51-87.1-150.91-87.1s-130.3,63.03-150.94,87.1ZM340.46,253.05c-100.81,0-179.68-104.13-183-108.56-4.06-5.44-4.06-12.9,0-18.34,3.32-4.44,82.18-108.56,183-108.56s179.7,104.15,182.98,108.56c4.06,5.44,4.06,12.9,0,18.34-3.29,4.44-82.18,108.56-182.98,108.56"/>
    <path id="Path_3447" data-name="Path 3447" class="cls-5" d="M621.57,77.92c-1.36,0-2.72-.18-4.04-.54-8.15-2.2-12.98-10.6-10.78-18.75,0-.02.01-.04.02-.05,4.01-14.07,6.15-28.62,6.38-43.25,0-8.47,6.86-15.33,15.33-15.33s15.33,6.86,15.33,15.33c-.23,17.35-2.77,34.59-7.53,51.28-1.8,6.67-7.84,11.31-14.75,11.32"/>
    <path id="Path_3448" data-name="Path 3448" class="cls-5" d="M511.15,270.62c-3.64,0-7.16-1.3-9.93-3.66-6.44-5.48-7.22-15.14-1.74-21.58,0,0,.01-.01.02-.02,34.62-41.94,64.27-87.74,88.36-136.5,3.57-7.67,12.68-10.99,20.35-7.42,7.66,3.59,10.98,12.7,7.41,20.37-25.15,51.3-56.3,99.44-92.8,143.41-2.91,3.43-7.18,5.4-11.67,5.39"/>
    <path id="Path_3449" data-name="Path 3449" class="cls-5" d="M438.03,521.98c-1.73,0-3.46-.3-5.09-.88-7.96-2.78-12.15-11.49-9.37-19.44.01-.04.02-.07.04-.1,10.65-30.33,21.66-88.11-24.46-134.23-5.99-5.97-6-15.66-.03-21.65l.03-.03c5.97-5.98,15.67-5.99,21.65-.01h.01c42.35,42.38,53.93,102.92,31.69,166.04-2.16,6.14-7.95,10.25-14.46,10.25"/>
    <path id="Path_3450" data-name="Path 3450" class="cls-5" d="M382.25,608.91c-4.07,0-7.98-1.61-10.85-4.5-5.97-5.99-5.97-15.68,0-21.68,7.51-7.49,14.49-15.5,20.9-23.95,5.12-6.74,14.74-8.05,21.48-2.93,0,0,0,0,.01,0,6.73,5.13,8.03,14.73,2.92,21.47-7.26,9.53-15.15,18.57-23.63,27.04-2.86,2.88-6.76,4.5-10.82,4.5"/>
  </g>

    <script>
    const lemonyellow = document.querySelector('#lemon');
    console.log(lemonyellow);
    function logthisId(element) {
    console.log(this);
    console.log('clicked on this element:', this.id);
    }

    lemonyellow.addEventListener('click', logthisId);
    </script>
</svg>