<?xml version="1.0" encoding="UTF-8"?>
<svg id="watermelon" data-name="Layer 1" xmlns="http://www.w3.org/2000/svg" version="1.1" viewBox="0 0 800 800">
  <defs>
    <style>

      #watermelon:hover{
          transform: rotate(60deg);
      }
   
      .cls-3:hover { 
      opacity: 60%;
      fill: white;
      }

      .cls-1 {
        fill: #fff;
      }

      .cls-1, .cls-2, .cls-3, .cls-4 {
        fill-rule: evenodd;
        stroke-width: 0px;
      }

      .cls-2 {
        fill: #5db67d;
      }

      .cls-3 {
        fill: #f22a5c;
      }

      .cls-4 {
        fill: #6f0911;
      }
    </style>
  </defs>
  <g id="Group_1644" data-name="Group 1644">
    <path id="Path_3579" data-name="Path 3579" class="cls-1" d="M518,326.57c0,141.14-98.79,255.54-220.69,255.54s-220.69-114.4-220.69-255.54,98.82-255.54,220.69-255.54,220.69,114.42,220.69,255.54"/>
    <path id="Path_3580" data-name="Path 3580" class="cls-2" d="M567.1,375.56c0,141.14-98.79,255.54-220.69,255.54s-220.69-114.4-220.69-255.54,98.8-255.53,220.69-255.53,220.69,114.4,220.69,255.53"/>
    <path id="Path_3581" data-name="Path 3581" class="cls-4" d="M297.3,86.3c-113.23,0-205.36,107.76-205.36,240.22s92.13,240.22,205.36,240.22,205.36-107.76,205.36-240.22-92.1-240.22-205.36-240.22ZM297.3,597.38c-130.12,0-236.01-121.51-236.01-270.87S167.18,55.65,297.3,55.65s236.01,121.52,236.01,270.87-105.88,270.87-236.01,270.87"/>
    <path id="Path_3582" data-name="Path 3582" class="cls-4" d="M297.3,86.3c-1.57,0-3.15-.24-4.65-.72-8.06-2.58-12.51-11.19-9.96-19.25,5.83-24.89,21.86-46.19,44.16-58.68,32.33-15.37,69.4-.89,99.18,10.78,12.45,4.79,33.3,13.04,38.09,10.57h0s2.23-2.68,2.23-13.66C466.36,6.87,473.22,0,481.68,0s15.33,6.86,15.33,15.33c1.35,14.76-4.47,29.27-15.64,39-17.4,11.86-40.15,2.95-66.49-7.36-25.54-9.98-54.52-21.28-74.82-11.65-14.47,9.05-24.63,23.6-28.13,40.31-2.03,6.36-7.95,10.68-14.62,10.68"/>
    <path id="Path_3583" data-name="Path 3583" class="cls-4" d="M384.43,341.84c-8.47,0-15.33-6.86-15.33-15.33,0-148.82-41.79-240.22-71.84-240.22-8.47,0-15.33-6.86-15.33-15.33s6.86-15.33,15.33-15.33c66.54,0,102.44,139.56,102.44,270.87,0,8.47-6.86,15.33-15.33,15.33"/>
    <path id="Path_3584" data-name="Path 3584" class="cls-4" d="M226.45,193.26c-1.23,0-2.45-.15-3.64-.43-8.2-2.04-13.19-10.33-11.17-18.53,2.51-10.33,5.32-20.26,8.33-29.47,2.64-8.04,11.29-12.43,19.33-9.8,8.04,2.63,12.43,11.29,9.8,19.33h0c-2.78,8.49-5.36,17.56-7.69,27.14-1.68,6.86-7.81,11.69-14.88,11.7"/>
    <path id="Path_3585" data-name="Path 3585" class="cls-4" d="M235.92,523.07c-6.55,0-12.38-4.16-14.51-10.36-18.65-60.27-27.6-123.11-26.53-186.19-.04-27.54,1.48-55.07,4.55-82.44.99-8.39,8.56-14.42,16.95-13.49,8.4.95,14.44,8.53,13.49,16.93,0,0,0,.01,0,.02-2.93,26.22-4.38,52.59-4.34,78.98-1.06,59.7,7.34,119.19,24.89,176.26,2.74,8.02-1.55,16.74-9.57,19.47,0,0,0,0-.01,0-1.59.55-3.27.82-4.95.81"/>
    <path id="Path_3586" data-name="Path 3586" class="cls-1" d="M584.48,137.93c140.24,140.21,140.25,367.56.04,507.8l-.04.04c-140.23,140.24-367.6,140.24-507.84.01h-.01s507.85-507.85,507.85-507.85"/>
    <path id="Path_3587" data-name="Path 3587" class="cls-2" d="M633.52,186.97c140.24,140.22,140.24,367.59.02,507.82l-.02.02c-140.23,140.24-367.6,140.24-507.84.01h-.01s507.85-507.85,507.85-507.85"/>
    <path id="Path_3588" data-name="Path 3588" class="cls-4" d="M98.55,645.53c63.24,58.17,146.09,90.34,232.01,90.1,91.23.25,178.76-36.01,243.09-100.68,129.83-130.13,134.5-339.3,10.62-475.1L98.55,645.53ZM330.55,766.09c-99.3.18-194.58-39.22-264.75-109.48-2.88-2.88-4.49-6.77-4.5-10.84,0-4.06,1.63-7.95,4.5-10.82L573.64,127.11c2.88-2.88,6.78-4.51,10.85-4.5h0c4.07,0,7.96,1.62,10.82,4.5,145.99,146.31,145.99,383.19,0,529.5-70.18,70.26-165.46,109.66-264.77,109.48"/>
    <path id="Path_3589" data-name="Path 3589" class="cls-1" d="M520.21,202.22c104.74,104.74,104.74,274.55,0,379.29h0c-104.74,104.74-274.55,104.75-379.29,0h0s379.29-379.3,379.29-379.3"/>
    <path id="Path_3590" data-name="Path 3590" class="cls-3" d="M569.25,251.25c104.74,104.74,104.74,274.55,0,379.29h0c-104.74,104.74-274.55,104.75-379.29,0h0s379.29-379.3,379.29-379.3"/>
    <path id="Path_3591" data-name="Path 3591" class="cls-4" d="M162.91,581.18c46.15,41.1,105.83,63.73,167.62,63.55,67.1.19,131.49-26.49,178.8-74.07,94.37-94.6,98.98-246.26,10.53-346.42l-356.96,356.94ZM330.54,675.37c-75.23.22-147.42-29.67-200.46-83.01-5.99-5.97-6-15.66-.03-21.65l.03-.03L509.34,191.38c6.09-5.73,15.59-5.73,21.68,0,110.55,110.8,110.55,290.17,0,400.97-53.06,53.34-125.25,83.23-200.48,83.01"/>
    <path id="Path_3592" data-name="Path 3592" class="cls-4" d="M426.48,503.11c-4.06,0-7.95-1.61-10.81-4.49l-6.79-6.77c-5.98-5.97-5.99-15.67-.01-21.65h.01c5.96-6,15.64-6.02,21.63-.06l.05.05,6.77,6.77c5.98,5.96,6,15.65.04,21.63l-.04.04c-2.86,2.9-6.77,4.53-10.84,4.52"/>
    <path id="Path_3593" data-name="Path 3593" class="cls-4" d="M466.22,407.18h-9.58c-8.47,0-15.33-6.86-15.33-15.33s6.86-15.33,15.33-15.33h9.58c8.47,0,15.33,6.86,15.33,15.33s-6.86,15.33-15.33,15.33"/>
    <path id="Path_3594" data-name="Path 3594" class="cls-4" d="M330.55,542.83c-8.47,0-15.33-6.86-15.33-15.33v-9.58c0-8.47,6.86-15.33,15.33-15.33s15.33,6.86,15.33,15.33v9.58c0,8.47-6.86,15.33-15.33,15.33"/>
  </g>
    <script>
    const watermelongreen = document.querySelector('#watermelon');
    console.log(watermelongreen);
    function logthisId(element) {
    console.log(this);
    console.log('clicked on this element:', this.id);
    }

    watermelongreen.addEventListener('click', logthisId);
    </script>
</svg>